<svg width="52" height="52" viewBox="0 0 52 52" fill="none" xmlns="http://www.w3.org/2000/svg">
<path d="M49.6257 9.94656H42.3776C42.6558 9.61171 42.9012 9.22662 43.0975 8.79131C43.8501 7.11703 43.6538 5.22509 42.6885 3.68475C40.6924 0.503616 36.5694 0.336188 33.7225 2.39555C32.07 3.58429 30.6139 5.09115 29.1577 6.51429C28.0615 7.58583 26.9817 8.67411 25.9509 9.81262C23.873 7.48537 21.5988 5.29206 19.2592 3.26618C17.8685 2.07744 16.3632 1.19007 14.5144 1.02264C12.8455 0.871958 11.1113 1.4747 9.94961 2.73041C8.03534 4.78978 7.92081 7.95417 9.54058 9.94656H2.34162C1.60537 9.94656 1 10.566 1 11.3195V23.977C1 24.7305 1.60537 25.35 2.34162 25.35H4.35406V49.627C4.35406 50.3805 4.95942 50.9999 5.69568 50.9999H46.3043C47.0406 50.9999 47.6459 50.3805 47.6459 49.627V25.35H49.6584C50.3946 25.35 51 24.7305 51 23.977V11.3195C51 10.566 50.3946 9.94656 49.6584 9.94656H49.6257ZM29.305 9.94656C30.6466 8.55691 32.0373 7.23423 33.4444 5.94503C34.4751 5.00743 35.5059 4.03635 36.8966 3.68475C38.0582 3.38338 39.3508 3.60104 40.1852 4.53863C41.0196 5.45949 41.3469 6.74868 40.7579 7.87045C40.1034 9.10942 38.7454 9.26011 37.5183 9.46102C36.0294 9.69542 34.5242 9.8461 33.019 9.94656C32.2009 9.99679 31.3992 10.047 30.5812 10.0972C30.074 10.1307 29.5668 10.1642 29.0596 10.1977C29.1414 10.114 29.2232 10.0303 29.305 9.94656ZM11.1603 5.39252C11.7493 4.22052 12.8128 3.53407 14.1217 3.56755C15.4961 3.58429 16.6414 4.33772 17.6558 5.22509C19.3737 6.7152 21.0425 8.30577 22.6296 9.96331C22.7277 10.0638 22.8096 10.1642 22.9077 10.2479C21.517 10.1642 20.1263 10.0638 18.7356 9.96331C17.623 9.87959 16.4941 9.76239 15.3815 9.62845C14.2199 9.47776 12.6492 9.42753 11.733 8.60714C10.8331 7.80348 10.6368 6.4808 11.1767 5.40926L11.1603 5.39252ZM23.3822 48.2541H7.02094V25.3332H23.3822V48.2541ZM44.9627 48.2541H28.6014V25.3332H44.9627V48.2541ZM48.3004 22.6041H3.66688V12.6924H21.5334C22.3678 12.7426 23.2022 12.8096 24.0366 12.8766C22.5641 14.2495 21.0753 15.6391 19.6027 17.012C18.6538 17.8994 20.0609 19.356 21.0262 18.4687C22.6296 16.9785 24.233 15.4884 25.8364 13.9816C27.2435 15.5554 28.6505 17.146 30.0576 18.7198C30.9247 19.6909 32.3482 18.251 31.481 17.2632C30.1885 15.8065 28.8959 14.3499 27.587 12.91C28.7978 12.8263 30.0085 12.7761 31.2192 12.6924H48.3004V22.6041Z" fill="url(#paint0_linear_2002_59)" stroke="url(#paint1_linear_2002_59)" stroke-width="2" stroke-miterlimit="10"/>
<defs>
<linearGradient id="paint0_linear_2002_59" x1="11.2804" y1="50.9999" x2="57.4867" y2="47.8269" gradientUnits="userSpaceOnUse">
<stop stop-color="#FF9623"/>
<stop offset="1" stop-color="#FF5912"/>
</linearGradient>
<linearGradient id="paint1_linear_2002_59" x1="11.2804" y1="50.9999" x2="57.4867" y2="47.8269" gradientUnits="userSpaceOnUse">
<stop stop-color="#FF9623"/>
<stop offset="1" stop-color="#FF5912"/>
</linearGradient>
</defs>
</svg>
